<?xml version="1.0"?><svg width="487.932" height="490.305" xmlns="http://www.w3.org/2000/svg">
 <title>simple compass</title>
 <g>
  <title>Layer 1</title>
  <g externalResourcesRequired="false" id="svg_1">
   <path fill="none" stroke="#000000" stroke-width="0.5892" stroke-linejoin="round" stroke-miterlimit="10" d="m312.791321,227.603561c6.821991,25.457001 0.109009,50.50502 -18.524994,69.141006c-18.636993,18.635986 -43.684021,25.346985 -69.141022,18.524994c-25.457001,-6.820007 -43.792999,-25.157013 -50.613998,-50.614014c-6.820999,-25.456985 -0.108994,-50.503998 18.526001,-69.139984c18.636002,-18.636002 43.68399,-25.347 69.141006,-18.526001c25.457001,6.820999 43.792999,25.156998 50.613007,50.613998l0,0" id="svg_2" transform="rotate(-30.376 243.652 246.13)"/>
   <path fill="none" stroke="#000000" stroke-width="14.1636" stroke-linejoin="round" stroke-miterlimit="10" d="m366.197937,213.292953c18.125,67.645004 -22.063995,137.255997 -89.710999,155.380997c-67.643997,18.126007 -137.255005,-22.063995 -155.380005,-89.709015c-18.125,-67.645996 22.063995,-137.255981 89.709,-155.381989c67.645004,-18.124001 137.25499,22.064987 155.382004,89.710007l0,0z" id="svg_14" transform="rotate(-30.376 243.652 246.129)"/>
   <polygon fill-rule="evenodd" clip-rule="evenodd" fill="#6E6E6E" points="356.03 216.018 260.703 255.975 273.764 358.507 233.807 263.181 131.274 276.241 226.6 236.285 213.54 133.752 253.496 229.078 356.03 216.018" id="svg_15" transform="rotate(-30.376 243.652 246.129)"/>
   <polygon fill-rule="evenodd" clip-rule="evenodd" points="399.579 336.153 250.992 273.518 153.629 402.056 216.264 253.469 87.7266 156.105 236.314 218.741 333.677 90.204 271.042 238.791 399.579 336.153" id="svg_16" transform="rotate(-30.376 243.653 246.13)"/>
   <polygon fill="none" stroke="#000000" stroke-width="2.0905" stroke-linejoin="round" stroke-miterlimit="10" points="399.579 336.153 250.992 273.518 153.629 402.056 216.264 253.469 87.7266 156.105 236.314 218.741 333.677 90.204 271.042 238.791 399.579 336.153" id="svg_17" transform="rotate(-30.376 243.653 246.13)"/>
   <polygon fill-rule="evenodd" clip-rule="evenodd" fill="#FFFFFF" points="264.645 207.976 279.971 204.333 384.67 277.272 264.645 207.976" id="svg_19" transform="rotate(-30.376 324.658 240.802)"/>
   <polygon fill-rule="evenodd" clip-rule="evenodd" fill="#FFFFFF" points="282.249 265.589 285.582 281.358 212.953 385.615 282.249 265.589" id="svg_20" transform="rotate(-30.376 249.268 325.602)"/>
   <polygon fill-rule="evenodd" clip-rule="evenodd" fill="#FFFFFF" points="222.573 284.309 206.762 287.613 102.547 215.012 222.573 284.309" id="svg_21" transform="rotate(-30.376 162.56 251.312)"/>
   <polygon fill-rule="evenodd" clip-rule="evenodd" fill="#FFFFFF" points="205.435 224.908 202.692 208.294 274.732 104.884 205.435 224.908" id="svg_22" transform="rotate(-30.376 238.712 164.896)"/>
   <path fill-rule="evenodd" clip-rule="evenodd" fill="#FFFCFC" d="m263.977051,240.683197c3.006012,11.220001 -3.660004,22.765015 -14.878998,25.770996c-11.220001,3.006012 -22.764999,-3.660004 -25.770996,-14.878998c-3.005997,-11.220001 3.660004,-22.765991 14.878998,-25.770996c11.220001,-3.005997 22.764984,3.660004 25.770996,14.878998l0,0z" id="svg_23" transform="rotate(-30.376 243.652 246.129)"/>
   <path fill="none" stroke="#000000" stroke-width="2.9459" stroke-linejoin="round" stroke-miterlimit="10" d="m263.977051,240.683197c3.006012,11.220001 -3.660004,22.765015 -14.878998,25.770996c-11.220001,3.006012 -22.764999,-3.660004 -25.770996,-14.878998c-3.005997,-11.220001 3.660004,-22.765991 14.878998,-25.770996c11.220001,-3.005997 22.764984,3.660004 25.770996,14.878998l0,0z" id="svg_24" transform="rotate(-30.376 243.652 246.129)"/>
   <path fill-rule="evenodd" clip-rule="evenodd" fill="#888888" d="m232.527313,241.290619c-2.858994,11.584 3.744995,20.130005 19.798996,24.445984c0.158005,0.197998 -11.731003,1.009003 -17.576996,-4.848999c-6.972992,-6.986984 -3.972992,-20.269974 -2.222,-19.596985l0,0z" id="svg_33" transform="rotate(-30.376 241.344 253.577)"/>
   <path fill-rule="evenodd" clip-rule="evenodd" fill="#888888" d="m253.316925,253.276794c7.460999,-10.233002 3.22699,-26.194992 -8.464996,-31.199005c-0.057007,-0.246994 7.237991,2.292007 11.85498,9.161011c6.651001,9.897003 -1.300995,23.540985 -3.389984,22.037994l0,0z" id="svg_34" transform="rotate(-30.376 252.08 237.726)"/>
  </g>
 </g>
</svg>